<?xml version="1.0" encoding="UTF-8" standalone="no"?>
<!-- Created with Inkscape (http://www.inkscape.org/) -->

<svg
   xmlns:dc="http://purl.org/dc/elements/1.1/"
   xmlns:cc="http://creativecommons.org/ns#"
   xmlns:rdf="http://www.w3.org/1999/02/22-rdf-syntax-ns#"
   xmlns:svg="http://www.w3.org/2000/svg"
   xmlns="http://www.w3.org/2000/svg"
   xmlns:sodipodi="http://sodipodi.sourceforge.net/DTD/sodipodi-0.dtd"
   xmlns:inkscape="http://www.inkscape.org/namespaces/inkscape"
   width="744.09448819"
   height="1052.3622047"
   id="svg2"
   version="1.1"
   inkscape:version="0.48.0 r9654"
   sodipodi:docname="New document 1">
  <defs
     id="defs4" />
  <sodipodi:namedview
     id="base"
     pagecolor="#ffffff"
     bordercolor="#666666"
     borderopacity="1.0"
     inkscape:pageopacity="0.0"
     inkscape:pageshadow="2"
     inkscape:zoom="0.98994949"
     inkscape:cx="123.11391"
     inkscape:cy="433.27287"
     inkscape:document-units="px"
     inkscape:current-layer="layer1"
     showgrid="false"
     inkscape:window-width="1552"
     inkscape:window-height="973"
     inkscape:window-x="0"
     inkscape:window-y="27"
     inkscape:window-maximized="1" />
  <metadata
     id="metadata7">
    <rdf:RDF>
      <cc:Work
         rdf:about="">
        <dc:format>image/svg+xml</dc:format>
        <dc:type
           rdf:resource="http://purl.org/dc/dcmitype/StillImage" />
        <dc:title></dc:title>
      </cc:Work>
    </rdf:RDF>
  </metadata>
  <g
     inkscape:label="Layer 1"
     inkscape:groupmode="layer"
     id="layer1">
    <path
       inkscape:connector-curvature="0"
       id="path3006"
       style="font-size:96.46296692px;font-style:normal;font-variant:normal;font-weight:bold;font-stretch:normal;line-height:125%;letter-spacing:0px;word-spacing:0px;fill:#000000;fill-opacity:1;stroke:none;font-family:Arial;-inkscape-font-specification:Arial Bold"
       d="m 233.2269,357.7705 13.56511,-1.31883 c 0.8164,4.55312 2.46493,7.89729 4.94561,10.03252 2.51203,2.13526 5.8876,3.20288 10.12673,3.20287 4.49026,1e-5 7.86583,-0.94201 10.12672,-2.82606 2.29221,-1.91543 3.43834,-4.14487 3.43838,-6.68835 -4e-5,-1.63281 -0.48676,-3.01444 -1.46013,-4.14489 -0.94207,-1.1618 -2.6063,-2.16662 -4.99271,-3.01447 -1.63288,-0.56519 -5.35386,-1.57001 -11.16295,-3.01447 -7.47339,-1.85261 -12.71731,-4.12916 -15.73176,-6.82965 -4.2391,-3.79945 -6.35865,-8.43105 -6.35864,-13.89481 -1e-5,-3.51683 0.98911,-6.7982 2.96737,-9.84412 2.00963,-3.07721 4.88279,-5.41656 8.61949,-7.01806 3.76806,-1.60137 8.30546,-2.40209 13.61221,-2.40216 8.66655,7e-5 15.18219,1.89981 19.54693,5.69923 4.39605,3.79955 6.704,8.87076 6.92386,15.21364 l -13.94191,0.61232 c -0.59666,-3.54823 -1.88409,-6.09168 -3.86229,-7.63037 -1.94688,-1.56998 -4.88284,-2.355 -8.8079,-2.35506 -4.05072,6e-5 -7.22218,0.83218 -9.51441,2.49636 -1.47586,1.06768 -2.21377,2.49641 -2.21375,4.2862 -2e-5,1.63288 0.69079,3.03021 2.07244,4.19199 1.75842,1.47588 6.02891,3.01451 12.81149,4.6159 6.78251,1.60148 11.79092,3.26572 15.02524,4.99272 3.26562,1.69567 5.80908,4.03502 7.63037,7.01805 1.85258,2.9517 2.7789,6.60988 2.77896,10.97455 -6e-5,3.9565 -1.09908,7.66178 -3.29707,11.11585 -2.1981,3.45408 -5.30677,6.02894 -9.32601,7.72457 -4.01933,1.66424 -9.02774,2.49636 -15.02524,2.49636 -8.72942,0 -15.43346,-2.00965 -20.11215,-6.02894 -4.67871,-4.05068 -7.47337,-9.93831 -8.38399,-17.66289" />
    <path
       inkscape:connector-curvature="0"
       id="path3008"
       style="font-size:96.46296692px;font-style:normal;font-variant:normal;font-weight:bold;font-stretch:normal;line-height:125%;letter-spacing:0px;word-spacing:0px;fill:#000000;fill-opacity:1;stroke:none;font-family:Arial;-inkscape-font-specification:Arial Bold"
       d="m 324.03775,330.21638 0,10.55063 -9.04341,0 0,20.15926 c -2e-5,4.0821 0.0785,6.46856 0.23551,7.15936 0.18838,0.65942 0.58089,1.20894 1.17752,1.64854 0.628,0.43962 1.38161,0.65942 2.26085,0.65941 1.22461,1e-5 2.99874,-0.4239 5.32242,-1.27173 l 1.13043,10.26803 c -3.0773,1.31883 -6.56277,1.97825 -10.45644,1.97825 -2.38647,0 -4.53741,-0.39251 -6.45284,-1.17753 -1.91546,-0.81642 -3.32849,-1.85264 -4.2391,-3.10867 -0.87922,-1.28742 -1.49154,-3.01446 -1.83694,-5.18112 -0.28261,-1.53862 -0.42391,-4.64729 -0.42391,-9.32601 l 0,-21.80779 -6.07603,0 0,-10.55063 6.07603,0 0,-9.93833 13.2825,-7.72457 0,17.6629 9.04341,0" />
    <path
       inkscape:connector-curvature="0"
       id="path3010"
       style="font-size:96.46296692px;font-style:normal;font-variant:normal;font-weight:bold;font-stretch:normal;line-height:125%;letter-spacing:0px;word-spacing:0px;fill:#000000;fill-opacity:1;stroke:none;font-family:Arial;-inkscape-font-specification:Arial Bold"
       d="m 330.25509,354.52052 c -10e-6,-4.39606 1.08332,-8.65086 3.24997,-12.76438 2.16664,-4.11345 5.2282,-7.25352 9.18471,-9.42021 3.98786,-2.1666 8.43106,-3.24993 13.32959,-3.24998 7.56754,5e-5 13.76917,2.46501 18.60492,7.39487 4.83566,4.89855 7.25351,11.10018 7.25357,18.60492 -6e-5,7.56758 -2.44931,13.84772 -7.34777,18.84042 -4.86715,4.96131 -11.00598,7.44197 -18.41651,7.44197 -4.58453,0 -8.96493,-1.03623 -13.1412,-3.10867 -4.1449,-2.07245 -7.30067,-5.10261 -9.46731,-9.09051 -2.16665,-4.01927 -3.24998,-8.90208 -3.24997,-14.64843 m 13.5651,0.70652 c -2e-5,4.96133 1.17751,8.76081 3.53258,11.39846 2.35503,2.63767 5.25959,3.95649 8.7137,3.95648 3.45404,1e-5 6.3429,-1.31881 8.66659,-3.95648 2.35501,-2.63765 3.53254,-6.46853 3.53258,-11.49266 -4e-5,-4.89848 -1.17757,-8.66656 -3.53258,-11.30426 -2.32369,-2.63762 -5.21255,-3.95644 -8.66659,-3.95649 -3.45411,5e-5 -6.35867,1.31887 -8.7137,3.95649 -2.35507,2.6377 -3.5326,6.43718 -3.53258,11.39846" />
    <path
       inkscape:connector-curvature="0"
       id="path3012"
       style="font-size:96.46296692px;font-style:normal;font-variant:normal;font-weight:bold;font-stretch:normal;line-height:125%;letter-spacing:0px;word-spacing:0px;fill:#000000;fill-opacity:1;stroke:none;font-family:Arial;-inkscape-font-specification:Arial Bold"
       d="m 404.95737,380.2377 -13.2354,0 0,-50.02132 12.29338,0 0,7.11226 c 2.10382,-3.35983 3.98786,-5.57358 5.65212,-6.64125 1.69562,-1.06758 3.61106,-1.60139 5.74633,-1.60144 3.01444,5e-5 5.919,0.83217 8.7137,2.49636 l -4.09779,11.53976 c -2.22949,-1.4444 -4.30193,-2.16661 -6.21734,-2.16665 -1.85267,4e-5 -3.42271,0.51815 -4.71011,1.55433 -1.28745,1.00486 -2.30797,2.8418 -3.06157,5.51083 -0.72223,2.66909 -1.08334,8.25841 -1.08332,16.76797 l 0,15.44915" />
    <path
       inkscape:connector-curvature="0"
       id="path3014"
       style="font-size:96.46296692000001372px;font-style:normal;font-variant:normal;font-weight:bold;font-stretch:normal;line-height:125%;letter-spacing:0px;word-spacing:0px;fill:#c92423;fill-opacity:1;stroke:none;font-family:Arial;-inkscape-font-specification:Arial Bold"
       d="m 429.30862,380.2377 0,-69.05015 13.2354,0 0,36.64462 15.49624,-17.61579 16.29697,0 -17.09768,18.27521 18.32231,31.74611 -14.27162,0 -12.57599,-22.4672 -6.17023,6.45284 0,16.01436 -13.2354,0" />
    <path
       inkscape:connector-curvature="0"
       id="path3016"
       style="font-size:96.46296692px;font-style:normal;font-variant:normal;font-weight:bold;font-stretch:normal;line-height:125%;letter-spacing:0px;word-spacing:0px;fill:#000000;fill-opacity:1;stroke:none;font-family:Arial;-inkscape-font-specification:Arial Bold"
       d="m 483.94583,380.2377 0,-68.48494 13.94191,0 0,56.85098 34.66638,0 0,11.63396 -48.60829,0" />
    <path
       inkscape:connector-curvature="0"
       id="path3018"
       style="font-size:96.46296692px;font-style:normal;font-variant:normal;font-weight:bold;font-stretch:normal;line-height:125%;letter-spacing:0px;word-spacing:0px;fill:#000000;fill-opacity:1;stroke:none;font-family:Arial;-inkscape-font-specification:Arial Bold"
       d="m 233.2269,478.34921 13.56511,-1.31883 c 0.8164,4.55312 2.46493,7.89729 4.94561,10.03252 2.51203,2.13526 5.8876,3.20288 10.12673,3.20287 4.49026,1e-5 7.86583,-0.94201 10.12672,-2.82606 2.29221,-1.91543 3.43834,-4.14488 3.43838,-6.68835 -4e-5,-1.63282 -0.48676,-3.01445 -1.46013,-4.14489 -0.94207,-1.1618 -2.6063,-2.16663 -4.99271,-3.01447 -1.63288,-0.56519 -5.35386,-1.57001 -11.16295,-3.01447 -7.47339,-1.85261 -12.71731,-4.12916 -15.73176,-6.82965 -4.2391,-3.79945 -6.35865,-8.43105 -6.35864,-13.89481 -1e-5,-3.51683 0.98911,-6.7982 2.96737,-9.84413 2.00963,-3.0772 4.88279,-5.41655 8.61949,-7.01805 3.76806,-1.60137 8.30546,-2.40209 13.61221,-2.40216 8.66655,7e-5 15.18219,1.89981 19.54693,5.69923 4.39605,3.79955 6.704,8.87076 6.92386,15.21364 l -13.94191,0.61232 c -0.59666,-3.54823 -1.88409,-6.09169 -3.86229,-7.63038 -1.94688,-1.56997 -4.88284,-2.35499 -8.8079,-2.35505 -4.05072,6e-5 -7.22218,0.83218 -9.51441,2.49636 -1.47586,1.06768 -2.21377,2.49641 -2.21375,4.28619 -2e-5,1.63289 0.69079,3.03022 2.07244,4.192 1.75842,1.47588 6.02891,3.01451 12.81149,4.6159 6.78251,1.60148 11.79092,3.26572 15.02524,4.99271 3.26562,1.69568 5.80908,4.03503 7.63037,7.01806 1.85258,2.9517 2.7789,6.60987 2.77896,10.97455 -6e-5,3.9565 -1.09908,7.66178 -3.29707,11.11585 -2.1981,3.45408 -5.30677,6.02894 -9.32601,7.72457 -4.01933,1.66424 -9.02774,2.49636 -15.02524,2.49636 -8.72942,0 -15.43346,-2.00965 -20.11215,-6.02894 -4.67871,-4.05068 -7.47337,-9.93831 -8.38399,-17.66289" />
    <path
       inkscape:connector-curvature="0"
       id="path3020"
       style="font-size:96.46296692px;font-style:normal;font-variant:normal;font-weight:bold;font-stretch:normal;line-height:125%;letter-spacing:0px;word-spacing:0px;fill:#000000;fill-opacity:1;stroke:none;font-family:Arial;-inkscape-font-specification:Arial Bold"
       d="m 324.03775,450.79509 0,10.55063 -9.04341,0 0,20.15926 c -2e-5,4.0821 0.0785,6.46855 0.23551,7.15936 0.18838,0.65942 0.58089,1.20894 1.17752,1.64853 0.628,0.43962 1.38161,0.65943 2.26085,0.65942 1.22461,1e-5 2.99874,-0.4239 5.32242,-1.27173 l 1.13043,10.26803 c -3.0773,1.31883 -6.56277,1.97824 -10.45644,1.97825 -2.38647,-1e-5 -4.53741,-0.39251 -6.45284,-1.17753 -1.91546,-0.81642 -3.32849,-1.85264 -4.2391,-3.10867 -0.87922,-1.28743 -1.49154,-3.01446 -1.83694,-5.18112 -0.28261,-1.53862 -0.42391,-4.64729 -0.42391,-9.32601 l 0,-21.80779 -6.07603,0 0,-10.55063 6.07603,0 0,-9.93833 13.2825,-7.72457 0,17.6629 9.04341,0" />
    <path
       inkscape:connector-curvature="0"
       id="path3022"
       style="font-size:96.46296692px;font-style:normal;font-variant:normal;font-weight:bold;font-stretch:normal;line-height:125%;letter-spacing:0px;word-spacing:0px;fill:#000000;fill-opacity:1;stroke:none;font-family:Arial;-inkscape-font-specification:Arial Bold"
       d="m 330.25509,475.09923 c -10e-6,-4.39607 1.08332,-8.65086 3.24997,-12.76438 2.16664,-4.11345 5.2282,-7.25352 9.18471,-9.42022 3.98786,-2.16659 8.43106,-3.24992 13.32959,-3.24997 7.56754,5e-5 13.76917,2.46501 18.60492,7.39487 4.83566,4.89855 7.25351,11.10018 7.25357,18.60492 -6e-5,7.56758 -2.44931,13.84772 -7.34777,18.84042 -4.86715,4.96131 -11.00598,7.44196 -18.41651,7.44197 -4.58453,-1e-5 -8.96493,-1.03623 -13.1412,-3.10867 -4.1449,-2.07245 -7.30067,-5.10261 -9.46731,-9.09051 -2.16665,-4.01927 -3.24998,-8.90208 -3.24997,-14.64843 m 13.5651,0.70652 c -2e-5,4.96133 1.17751,8.76081 3.53258,11.39845 2.35503,2.63767 5.25959,3.9565 8.7137,3.95649 3.45404,1e-5 6.3429,-1.31882 8.66659,-3.95649 2.35501,-2.63764 3.53254,-6.46852 3.53258,-11.49265 -4e-5,-4.89848 -1.17757,-8.66656 -3.53258,-11.30426 -2.32369,-2.63762 -5.21255,-3.95645 -8.66659,-3.95649 -3.45411,4e-5 -6.35867,1.31887 -8.7137,3.95649 -2.35507,2.6377 -3.5326,6.43718 -3.53258,11.39846" />
    <path
       inkscape:connector-curvature="0"
       id="path3024"
       style="font-size:96.46296692px;font-style:normal;font-variant:normal;font-weight:bold;font-stretch:normal;line-height:125%;letter-spacing:0px;word-spacing:0px;fill:#000000;fill-opacity:1;stroke:none;font-family:Arial;-inkscape-font-specification:Arial Bold"
       d="m 404.95737,500.81641 -13.2354,0 0,-50.02132 12.29338,0 0,7.11226 c 2.10382,-3.35983 3.98786,-5.57358 5.65212,-6.64125 1.69562,-1.06758 3.61106,-1.60139 5.74633,-1.60144 3.01444,5e-5 5.919,0.83217 8.7137,2.49636 l -4.09779,11.53976 c -2.22949,-1.4444 -4.30193,-2.16661 -6.21734,-2.16665 -1.85267,4e-5 -3.42271,0.51815 -4.71011,1.55433 -1.28745,1.00486 -2.30797,2.8418 -3.06157,5.51083 -0.72223,2.66909 -1.08334,8.25841 -1.08332,16.76797 l 0,15.44915" />
    <path
       inkscape:connector-curvature="0"
       id="path3026"
       style="font-size:96.46296692000001372px;font-style:normal;font-variant:normal;font-weight:bold;font-stretch:normal;line-height:125%;letter-spacing:0px;word-spacing:0px;fill:#c92423;fill-opacity:1;stroke:none;font-family:Arial;-inkscape-font-specification:Arial Bold"
       d="m 430.06224,500.81641 0,-69.05015 13.94191,0 0,30.66279 28.16643,-30.66279 18.74622,0 -25.99978,26.8947 27.41281,42.15545 -18.0397,0 -18.98173,-32.40553 -11.30425,11.53976 0,20.86577 -13.94191,0" />
    <path
       inkscape:connector-curvature="0"
       id="path3028"
       style="font-size:96.46296692px;font-style:normal;font-variant:normal;font-weight:bold;font-stretch:normal;line-height:125%;letter-spacing:0px;word-spacing:0px;fill:#000000;fill-opacity:1;stroke:none;font-family:Arial;-inkscape-font-specification:Arial Bold"
       d="m 499.48919,500.81641 0,-69.05015 13.2354,0 0,69.05015 -13.2354,0" />
    <path
       inkscape:connector-curvature="0"
       id="path3030"
       style="font-size:96.46296692px;font-style:normal;font-variant:normal;font-weight:bold;font-stretch:normal;line-height:125%;letter-spacing:0px;word-spacing:0px;fill:#000000;fill-opacity:1;stroke:none;font-family:Arial;-inkscape-font-specification:Arial Bold"
       d="m 233.2269,598.92791 13.56511,-1.31883 c 0.8164,4.55313 2.46493,7.8973 4.94561,10.03253 2.51203,2.13526 5.8876,3.20288 10.12673,3.20287 4.49026,10e-6 7.86583,-0.94201 10.12672,-2.82606 2.29221,-1.91543 3.43834,-4.14488 3.43838,-6.68835 -4e-5,-1.63282 -0.48676,-3.01445 -1.46013,-4.1449 -0.94207,-1.1618 -2.6063,-2.16662 -4.99271,-3.01446 -1.63288,-0.56519 -5.35386,-1.57001 -11.16295,-3.01447 -7.47339,-1.85261 -12.71731,-4.12916 -15.73176,-6.82965 -4.2391,-3.79945 -6.35865,-8.43105 -6.35864,-13.89482 -1e-5,-3.51682 0.98911,-6.79819 2.96737,-9.84412 2.00963,-3.0772 4.88279,-5.41655 8.61949,-7.01805 3.76806,-1.60137 8.30546,-2.40209 13.61221,-2.40216 8.66655,7e-5 15.18219,1.89981 19.54693,5.69923 4.39605,3.79955 6.704,8.87075 6.92386,15.21364 l -13.94191,0.61231 c -0.59666,-3.54822 -1.88409,-6.09168 -3.86229,-7.63037 -1.94688,-1.56997 -4.88284,-2.35499 -8.8079,-2.35505 -4.05072,6e-5 -7.22218,0.83218 -9.51441,2.49636 -1.47586,1.06768 -2.21377,2.49641 -2.21375,4.28619 -2e-5,1.63289 0.69079,3.03022 2.07244,4.192 1.75842,1.47588 6.02891,3.01451 12.81149,4.6159 6.78251,1.60148 11.79092,3.26571 15.02524,4.99271 3.26562,1.69568 5.80908,4.03503 7.63037,7.01806 1.85258,2.95169 2.7789,6.60987 2.77896,10.97455 -6e-5,3.9565 -1.09908,7.66178 -3.29707,11.11585 -2.1981,3.45408 -5.30677,6.02894 -9.32601,7.72457 -4.01933,1.66424 -9.02774,2.49635 -15.02524,2.49636 -8.72942,-10e-6 -15.43346,-2.00965 -20.11215,-6.02894 -4.67871,-4.05068 -7.47337,-9.93831 -8.38399,-17.6629" />
    <path
       inkscape:connector-curvature="0"
       id="path3032"
       style="font-size:96.46296692px;font-style:normal;font-variant:normal;font-weight:bold;font-stretch:normal;line-height:125%;letter-spacing:0px;word-spacing:0px;fill:#000000;fill-opacity:1;stroke:none;font-family:Arial;-inkscape-font-specification:Arial Bold"
       d="m 324.03775,571.3738 0,10.55063 -9.04341,0 0,20.15925 c -2e-5,4.08211 0.0785,6.46856 0.23551,7.15937 0.18838,0.65942 0.58089,1.20893 1.17752,1.64853 0.628,0.43962 1.38161,0.65943 2.26085,0.65942 1.22461,10e-6 2.99874,-0.4239 5.32242,-1.27173 l 1.13043,10.26803 c -3.0773,1.31883 -6.56277,1.97824 -10.45644,1.97824 -2.38647,0 -4.53741,-0.39251 -6.45284,-1.17752 -1.91546,-0.81642 -3.32849,-1.85264 -4.2391,-3.10867 -0.87922,-1.28743 -1.49154,-3.01446 -1.83694,-5.18112 -0.28261,-1.53862 -0.42391,-4.64729 -0.42391,-9.32601 l 0,-21.80779 -6.07603,0 0,-10.55063 6.07603,0 0,-9.93833 13.2825,-7.72457 0,17.6629 9.04341,0" />
    <path
       inkscape:connector-curvature="0"
       id="path3034"
       style="font-size:96.46296692px;font-style:normal;font-variant:normal;font-weight:bold;font-stretch:normal;line-height:125%;letter-spacing:0px;word-spacing:0px;fill:#000000;fill-opacity:1;stroke:none;font-family:Arial;-inkscape-font-specification:Arial Bold"
       d="m 330.25509,595.67794 c -10e-6,-4.39607 1.08332,-8.65086 3.24997,-12.76439 2.16664,-4.11345 5.2282,-7.25351 9.18471,-9.42021 3.98786,-2.1666 8.43106,-3.24992 13.32959,-3.24997 7.56754,5e-5 13.76917,2.465 18.60492,7.39487 4.83566,4.89854 7.25351,11.10018 7.25357,18.60491 -6e-5,7.56759 -2.44931,13.84773 -7.34777,18.84043 -4.86715,4.96131 -11.00598,7.44196 -18.41651,7.44196 -4.58453,0 -8.96493,-1.03622 -13.1412,-3.10867 -4.1449,-2.07244 -7.30067,-5.1026 -9.46731,-9.0905 -2.16665,-4.01928 -3.24998,-8.90208 -3.24997,-14.64843 m 13.5651,0.70652 c -2e-5,4.96133 1.17751,8.76081 3.53258,11.39845 2.35503,2.63767 5.25959,3.9565 8.7137,3.95649 3.45404,10e-6 6.3429,-1.31882 8.66659,-3.95649 2.35501,-2.63764 3.53254,-6.46852 3.53258,-11.49266 -4e-5,-4.89848 -1.17757,-8.66656 -3.53258,-11.30425 -2.32369,-2.63762 -5.21255,-3.95645 -8.66659,-3.95649 -3.45411,4e-5 -6.35867,1.31887 -8.7137,3.95649 -2.35507,2.63769 -3.5326,6.43718 -3.53258,11.39846" />
    <path
       inkscape:connector-curvature="0"
       id="path3036"
       style="font-size:96.46296692px;font-style:normal;font-variant:normal;font-weight:bold;font-stretch:normal;line-height:125%;letter-spacing:0px;word-spacing:0px;fill:#000000;fill-opacity:1;stroke:none;font-family:Arial;-inkscape-font-specification:Arial Bold"
       d="m 404.95737,621.39512 -13.2354,0 0,-50.02132 12.29338,0 0,7.11225 c 2.10382,-3.35982 3.98786,-5.57357 5.65212,-6.64124 1.69562,-1.06758 3.61106,-1.60139 5.74633,-1.60144 3.01444,5e-5 5.919,0.83217 8.7137,2.49636 l -4.09779,11.53975 c -2.22949,-1.44439 -4.30193,-2.1666 -6.21734,-2.16664 -1.85267,4e-5 -3.42271,0.51815 -4.71011,1.55433 -1.28745,1.00486 -2.30797,2.8418 -3.06157,5.51082 -0.72223,2.66909 -1.08334,8.25841 -1.08332,16.76798 l 0,15.44915" />
    <path
       inkscape:connector-curvature="0"
       id="path3038"
       style="font-size:96.46296692000001372px;font-style:normal;font-variant:normal;font-weight:bold;font-stretch:normal;line-height:125%;letter-spacing:0px;word-spacing:0px;fill:#c92423;fill-opacity:1;stroke:none;font-family:Arial;-inkscape-font-specification:Arial Bold"
       d="m 430.06224,621.39512 0,-69.05015 13.94191,0 0,30.66279 28.16643,-30.66279 18.74622,0 -25.99978,26.8947 27.41281,42.15545 -18.0397,0 -18.98173,-32.40553 -11.30425,11.53976 0,20.86577 -13.94191,0" />
    <path
       inkscape:connector-curvature="0"
       id="path3040"
       style="font-size:96.46296692px;font-style:normal;font-variant:normal;font-weight:bold;font-stretch:normal;line-height:125%;letter-spacing:0px;word-spacing:0px;fill:#000000;fill-opacity:1;stroke:none;font-family:Arial;-inkscape-font-specification:Arial Bold"
       d="m 499.9602,621.39512 0,-68.48494 13.94192,0 0,56.85098 34.66638,0 0,11.63396 -48.6083,0" />
    <path
       inkscape:connector-curvature="0"
       id="path3042"
       style="font-size:96.46296692px;font-style:normal;font-variant:normal;font-weight:bold;font-stretch:normal;line-height:125%;letter-spacing:0px;word-spacing:0px;fill:#000000;fill-opacity:1;stroke:none;font-family:Arial;-inkscape-font-specification:Arial Bold"
       d="m 232.00228,727.70221 13.28249,-2.02535 c 0.5652,2.57487 1.71132,4.53741 3.43838,5.88763 1.72702,1.31884 4.14487,1.97826 7.25356,1.97825 3.42265,10e-6 5.99751,-0.62801 7.72458,-1.88404 1.16179,-0.87921 1.7427,-2.05674 1.74274,-3.53258 -4e-5,-1.00481 -0.31405,-1.83693 -0.94202,-2.49636 -0.65945,-0.628 -2.13529,-1.20891 -4.4275,-1.74274 -10.67626,-2.35503 -17.44311,-4.50598 -20.30056,-6.45284 -3.9565,-2.70044 -5.93474,-6.45282 -5.93473,-11.25716 -1e-5,-4.33325 1.71133,-7.97573 5.13401,-10.92744 3.42267,-2.95162 8.72938,-4.42745 15.92016,-4.4275 6.84532,5e-5 11.93223,1.11477 15.26074,3.34417 3.32843,2.2295 5.62068,5.52657 6.87676,9.89123 l -12.48178,2.30795 c -0.53385,-1.94681 -1.55437,-3.43834 -3.06157,-4.4746 -1.47587,-1.03619 -3.59541,-1.5543 -6.35865,-1.55434 -3.4855,4e-5 -5.98185,0.48675 -7.48906,1.46013 -1.00484,0.69086 -1.50725,1.58578 -1.50724,2.68477 -1e-5,0.94205 0.4396,1.74277 1.31883,2.40215 1.19321,0.87925 5.3067,2.11958 12.34048,3.72098 7.06512,1.60147 11.99503,3.56401 14.78973,5.88763 2.76322,2.35508 4.14485,5.63645 4.14489,9.84413 -4e-5,4.58451 -1.91549,8.52529 -5.74632,11.82236 -3.83093,3.29708 -9.49875,4.94561 -17.00349,4.94561 -6.81397,0 -12.21488,-1.38163 -16.20276,-4.14489 -3.9565,-2.76326 -6.54705,-6.51564 -7.77167,-11.25715" />
    <path
       inkscape:connector-curvature="0"
       id="path3044"
       style="font-size:96.46296692px;font-style:normal;font-variant:normal;font-weight:bold;font-stretch:normal;line-height:125%;letter-spacing:0px;word-spacing:0px;fill:#000000;fill-opacity:1;stroke:none;font-family:Arial;-inkscape-font-specification:Arial Bold"
       d="m 313.2987,691.9525 0,10.55064 -9.0434,0 0,20.15925 c -2e-5,4.08211 0.0785,6.46856 0.2355,7.15936 0.18839,0.65943 0.58089,1.20894 1.17753,1.64854 0.62799,0.43962 1.38161,0.65943 2.26085,0.65942 1.2246,10e-6 2.99874,-0.4239 5.32242,-1.27173 l 1.13043,10.26803 c -3.0773,1.31883 -6.56278,1.97824 -10.45644,1.97824 -2.38647,0 -4.53742,-0.39251 -6.45284,-1.17752 -1.91546,-0.81642 -3.32849,-1.85264 -4.2391,-3.10867 -0.87923,-1.28743 -1.49154,-3.01447 -1.83694,-5.18112 -0.28261,-1.53862 -0.42392,-4.64729 -0.42391,-9.32601 l 0,-21.80779 -6.07604,0 0,-10.55064 6.07604,0 0,-9.93832 13.2825,-7.72457 0,17.66289 9.0434,0" />
    <path
       inkscape:connector-curvature="0"
       id="path3046"
       style="font-size:96.46296692px;font-style:normal;font-variant:normal;font-weight:bold;font-stretch:normal;line-height:125%;letter-spacing:0px;word-spacing:0px;fill:#000000;fill-opacity:1;stroke:none;font-family:Arial;-inkscape-font-specification:Arial Bold"
       d="m 319.51604,716.25665 c 0,-4.39607 1.08332,-8.65086 3.24997,-12.76439 2.16664,-4.11345 5.22821,-7.25351 9.18471,-9.42021 3.98787,-2.1666 8.43107,-3.24992 13.3296,-3.24997 7.56753,5e-5 13.76917,2.465 18.60492,7.39486 4.83565,4.89855 7.25351,11.10019 7.25356,18.60492 -5e-5,7.56759 -2.44931,13.84772 -7.34776,18.84043 -4.86716,4.96131 -11.00599,7.44196 -18.41652,7.44196 -4.58453,0 -8.96492,-1.03622 -13.14119,-3.10867 -4.14491,-2.07244 -7.30068,-5.1026 -9.46732,-9.0905 -2.16665,-4.01928 -3.24997,-8.90208 -3.24997,-14.64843 m 13.56511,0.70652 c -2e-5,4.96133 1.1775,8.76081 3.53258,11.39845 2.35503,2.63767 5.25959,3.9565 8.71369,3.95649 3.45405,10e-6 6.34291,-1.31882 8.6666,-3.95649 2.35501,-2.63764 3.53253,-6.46852 3.53258,-11.49266 -5e-5,-4.89848 -1.17757,-8.66656 -3.53258,-11.30425 -2.32369,-2.63762 -5.21255,-3.95645 -8.6666,-3.95649 -3.4541,4e-5 -6.35866,1.31887 -8.71369,3.95649 -2.35508,2.63769 -3.5326,6.43717 -3.53258,11.39846" />
    <path
       inkscape:connector-curvature="0"
       id="path3048"
       style="font-size:96.46296692px;font-style:normal;font-variant:normal;font-weight:bold;font-stretch:normal;line-height:125%;letter-spacing:0px;word-spacing:0px;fill:#000000;fill-opacity:1;stroke:none;font-family:Arial;-inkscape-font-specification:Arial Bold"
       d="m 394.21832,741.97383 -13.23539,0 0,-50.02133 12.29337,0 0,7.11226 c 2.10383,-3.35983 3.98787,-5.57357 5.65213,-6.64125 1.69561,-1.06757 3.61105,-1.60138 5.74633,-1.60143 3.01443,5e-5 5.91899,0.83217 8.71369,2.49635 l -4.09779,11.53976 c -2.22948,-1.44439 -4.30193,-2.16661 -6.21734,-2.16665 -1.85267,4e-5 -3.4227,0.51816 -4.7101,1.55434 -1.28746,1.00486 -2.30798,2.8418 -3.06157,5.51082 -0.72224,2.66909 -1.08335,8.25841 -1.08333,16.76798 l 0,15.44915" />
    <path
       inkscape:connector-curvature="0"
       id="path3050"
       style="font-size:96.46296692000001372px;font-style:normal;font-variant:normal;font-weight:bold;font-stretch:normal;line-height:125%;letter-spacing:0px;word-spacing:0px;fill:#c92423;fill-opacity:1;stroke:none;font-family:Arial;-inkscape-font-specification:Arial Bold"
       d="m 418.56957,741.97383 0,-69.05015 13.2354,0 0,36.64462 15.49625,-17.6158 16.29697,0 -17.09769,18.27521 18.32231,31.74612 -14.27162,0 -12.57598,-22.46721 -6.17024,6.45285 0,16.01436 -13.2354,0" />
    <path
       inkscape:connector-curvature="0"
       id="path3052"
       style="font-size:96.46296692px;font-style:normal;font-variant:normal;font-weight:bold;font-stretch:normal;line-height:125%;letter-spacing:0px;word-spacing:0px;fill:#000000;fill-opacity:1;stroke:none;font-family:Arial;-inkscape-font-specification:Arial Bold"
       d="m 472.73578,741.97383 0,-69.05015 13.23539,0 0,69.05015 -13.23539,0" />
    <path
       inkscape:connector-curvature="0"
       id="path3054"
       style="font-size:96.46296692px;font-style:normal;font-variant:normal;font-weight:bold;font-stretch:normal;line-height:125%;letter-spacing:0px;word-spacing:0px;fill:#000000;fill-opacity:1;stroke:none;font-family:Arial;-inkscape-font-specification:Arial Bold"
       d="m 232.00228,848.28092 13.28249,-2.02535 c 0.5652,2.57487 1.71132,4.53741 3.43838,5.88763 1.72702,1.31884 4.14487,1.97826 7.25356,1.97825 3.42265,10e-6 5.99751,-0.62801 7.72458,-1.88405 1.16179,-0.8792 1.7427,-2.05673 1.74274,-3.53258 -4e-5,-1.0048 -0.31405,-1.83692 -0.94202,-2.49635 -0.65945,-0.628 -2.13529,-1.20891 -4.4275,-1.74274 -10.67626,-2.35503 -17.44311,-4.50598 -20.30056,-6.45285 -3.9565,-2.70043 -5.93474,-6.45281 -5.93473,-11.25715 -1e-5,-4.33326 1.71133,-7.97573 5.13401,-10.92744 3.42267,-2.95162 8.72938,-4.42745 15.92016,-4.4275 6.84532,5e-5 11.93223,1.11477 15.26074,3.34417 3.32843,2.2295 5.62068,5.52657 6.87676,9.89122 l -12.48178,2.30796 c -0.53385,-1.94681 -1.55437,-3.43834 -3.06157,-4.4746 -1.47587,-1.03619 -3.59541,-1.5543 -6.35865,-1.55434 -3.4855,4e-5 -5.98185,0.48675 -7.48906,1.46013 -1.00484,0.69086 -1.50725,1.58578 -1.50724,2.68476 -1e-5,0.94206 0.4396,1.74278 1.31883,2.40216 1.19321,0.87925 5.3067,2.11958 12.34048,3.72098 7.06512,1.60147 11.99503,3.56401 14.78973,5.88763 2.76322,2.35508 4.14485,5.63645 4.14489,9.84412 -4e-5,4.58452 -1.91549,8.5253 -5.74632,11.82237 -3.83093,3.29707 -9.49875,4.94561 -17.00349,4.94561 -6.81397,0 -12.21488,-1.38163 -16.20276,-4.14489 -3.9565,-2.76326 -6.54705,-6.51564 -7.77167,-11.25715" />
    <path
       inkscape:connector-curvature="0"
       id="path3056"
       style="font-size:96.46296692px;font-style:normal;font-variant:normal;font-weight:bold;font-stretch:normal;line-height:125%;letter-spacing:0px;word-spacing:0px;fill:#000000;fill-opacity:1;stroke:none;font-family:Arial;-inkscape-font-specification:Arial Bold"
       d="m 313.2987,812.53121 0,10.55064 -9.0434,0 0,20.15925 c -2e-5,4.08211 0.0785,6.46856 0.2355,7.15936 0.18839,0.65943 0.58089,1.20894 1.17753,1.64854 0.62799,0.43962 1.38161,0.65942 2.26085,0.65941 1.2246,1e-5 2.99874,-0.42389 5.32242,-1.27172 l 1.13043,10.26803 c -3.0773,1.31883 -6.56278,1.97824 -10.45644,1.97824 -2.38647,0 -4.53742,-0.39251 -6.45284,-1.17753 -1.91546,-0.81641 -3.32849,-1.85263 -4.2391,-3.10866 -0.87923,-1.28743 -1.49154,-3.01447 -1.83694,-5.18112 -0.28261,-1.53863 -0.42392,-4.64729 -0.42391,-9.32601 l 0,-21.80779 -6.07604,0 0,-10.55064 6.07604,0 0,-9.93832 13.2825,-7.72457 0,17.66289 9.0434,0" />
    <path
       inkscape:connector-curvature="0"
       id="path3058"
       style="font-size:96.46296692px;font-style:normal;font-variant:normal;font-weight:bold;font-stretch:normal;line-height:125%;letter-spacing:0px;word-spacing:0px;fill:#000000;fill-opacity:1;stroke:none;font-family:Arial;-inkscape-font-specification:Arial Bold"
       d="m 319.51604,836.83536 c 0,-4.39607 1.08332,-8.65086 3.24997,-12.76439 2.16664,-4.11345 5.22821,-7.25352 9.18471,-9.42021 3.98787,-2.1666 8.43107,-3.24992 13.3296,-3.24997 7.56753,5e-5 13.76917,2.465 18.60492,7.39486 4.83565,4.89855 7.25351,11.10019 7.25356,18.60492 -5e-5,7.56759 -2.44931,13.84772 -7.34776,18.84042 -4.86716,4.96132 -11.00599,7.44197 -18.41652,7.44197 -4.58453,0 -8.96492,-1.03622 -13.14119,-3.10867 -4.14491,-2.07244 -7.30068,-5.10261 -9.46732,-9.0905 -2.16665,-4.01928 -3.24997,-8.90208 -3.24997,-14.64843 m 13.56511,0.70651 c -2e-5,4.96134 1.1775,8.76082 3.53258,11.39846 2.35503,2.63767 5.25959,3.9565 8.71369,3.95649 3.45405,10e-6 6.34291,-1.31882 8.6666,-3.95649 2.35501,-2.63764 3.53253,-6.46852 3.53258,-11.49266 -5e-5,-4.89848 -1.17757,-8.66656 -3.53258,-11.30425 -2.32369,-2.63762 -5.21255,-3.95645 -8.6666,-3.95649 -3.4541,4e-5 -6.35866,1.31887 -8.71369,3.95649 -2.35508,2.63769 -3.5326,6.43717 -3.53258,11.39845" />
    <path
       inkscape:connector-curvature="0"
       id="path3060"
       style="font-size:96.46296692px;font-style:normal;font-variant:normal;font-weight:bold;font-stretch:normal;line-height:125%;letter-spacing:0px;word-spacing:0px;fill:#000000;fill-opacity:1;stroke:none;font-family:Arial;-inkscape-font-specification:Arial Bold"
       d="m 394.21832,862.55254 -13.23539,0 0,-50.02133 12.29337,0 0,7.11226 c 2.10383,-3.35983 3.98787,-5.57357 5.65213,-6.64125 1.69561,-1.06757 3.61105,-1.60138 5.74633,-1.60143 3.01443,5e-5 5.91899,0.83217 8.71369,2.49635 l -4.09779,11.53976 c -2.22948,-1.44439 -4.30193,-2.16661 -6.21734,-2.16665 -1.85267,4e-5 -3.4227,0.51815 -4.7101,1.55434 -1.28746,1.00486 -2.30798,2.8418 -3.06157,5.51082 -0.72224,2.66909 -1.08335,8.25841 -1.08333,16.76798 l 0,15.44915" />
    <path
       inkscape:connector-curvature="0"
       id="path3062"
       style="font-size:96.46296692000001372px;font-style:normal;font-variant:normal;font-weight:bold;font-stretch:normal;line-height:125%;letter-spacing:0px;word-spacing:0px;fill:#c92423;fill-opacity:1;stroke:none;font-family:Arial;-inkscape-font-specification:Arial Bold"
       d="m 418.56957,862.55254 0,-69.05016 13.2354,0 0,36.64463 15.49625,-17.6158 16.29697,0 -17.09769,18.27521 18.32231,31.74612 -14.27162,0 -12.57598,-22.46721 -6.17024,6.45285 0,16.01436 -13.2354,0" />
    <path
       inkscape:connector-curvature="0"
       id="path3064"
       style="font-size:96.46296692px;font-style:normal;font-variant:normal;font-weight:bold;font-stretch:normal;line-height:125%;letter-spacing:0px;word-spacing:0px;fill:#000000;fill-opacity:1;stroke:none;font-family:Arial;-inkscape-font-specification:Arial Bold"
       d="m 473.20679,862.55254 0,-68.48494 13.94191,0 0,56.85097 34.66638,0 0,11.63397 -48.60829,0" />
  </g>
</svg>
